HIERARCHY
ROOT root
{
	OFFSET	0	13.1	24.9
	CHANNELS 6  Xposition Yposition Zposition Xrotation Yrotation Zrotation
	JOINT spine_1
	{
		OFFSET	0	9.99999	0
		CHANNELS 3  Xrotation Yrotation Zrotation
		JOINT spine_2
		{
			OFFSET	0	112	-10
			CHANNELS 3  Xrotation Yrotation Zrotation
			JOINT spine_3
			{
				OFFSET	0	206.5	19.3
				CHANNELS 3  Xrotation Yrotation Zrotation
				JOINT spine_4
				{
					OFFSET	0	110.4	14.6
					CHANNELS 3  Xrotation Yrotation Zrotation
					JOINT neck_1
					{
						OFFSET	0	71.8	-50.3
						CHANNELS 3  Xrotation Yrotation Zrotation
						JOINT neck_2
						{
							OFFSET	0	86.2	-25.8
							CHANNELS 3  Xrotation Yrotation Zrotation
							JOINT head_ee
							{
								OFFSET	0	179.8	-8.7
								CHANNELS 3  Xrotation Yrotation Zrotation
								End Site
								{
									OFFSET	1	0	0
								}
							}
						}
					}
					JOINT left_clavicle
					{
						OFFSET	-43.2	22.4	-70.8
						CHANNELS 3  Xrotation Yrotation Zrotation
						JOINT left_shoulder
						{
							OFFSET	-93.9	-5.79999	48.7
							CHANNELS 3  Xrotation Yrotation Zrotation
							JOINT left_elbow
							{
								OFFSET	-291.4	-30.8	15.2
								CHANNELS 3  Xrotation Yrotation Zrotation
								JOINT left_lowarm_twist
								{
									OFFSET	-110.7	-3.89999	13.6
									CHANNELS 3  Xrotation Yrotation Zrotation
									JOINT left_hand
									{
										OFFSET	-110.7	-3.89999	13.6
										CHANNELS 3  Xrotation Yrotation Zrotation
										JOINT left_ee
										{
											OFFSET	-80.8	-5.10001	12.1
											CHANNELS 3  Xrotation Yrotation Zrotation
											End Site
											{
												OFFSET	1	0	0
											}
										}
									}
								}
							}
						}
					}
					JOINT right_clavicle
					{
						OFFSET	43.2	22.4	-70.8
						CHANNELS 3  Xrotation Yrotation Zrotation
						JOINT right_shoulder
						{
							OFFSET	93.9	-5.79999	48.7
							CHANNELS 3  Xrotation Yrotation Zrotation
							JOINT right_elbow
							{
								OFFSET	291.4	-30.8	15.2
								CHANNELS 3  Xrotation Yrotation Zrotation
								JOINT right_lowarm_twist
								{
									OFFSET	110.7	-3.89999	13.6
									CHANNELS 3  Xrotation Yrotation Zrotation
									JOINT right_hand
									{
										OFFSET	110.7	-3.89999	13.6
										CHANNELS 3  Xrotation Yrotation Zrotation
										JOINT right_ee
										{
											OFFSET	80.8	-5.10001	12.1
											CHANNELS 3  Xrotation Yrotation Zrotation
											End Site
											{
												OFFSET	1	0	0
											}
										}
									}
								}
							}
						}
					}
				}
			}
		}
	}
	JOINT left_hip
	{
		OFFSET	-82.8	-127.5	0.300001
		CHANNELS 3  Xrotation Yrotation Zrotation
		JOINT left_knee
		{
			OFFSET	-28.2	-396.7	2.2
			CHANNELS 3  Xrotation Yrotation Zrotation
			JOINT left_ankle
			{
				OFFSET	-11.7	-411.3	35.4
				CHANNELS 3  Xrotation Yrotation Zrotation
				JOINT left_toes
				{
					OFFSET	0	-60	-88.6
					CHANNELS 3  Xrotation Yrotation Zrotation
					JOINT left_foot_ee
					{
						OFFSET	-22.5	-16.5	-42.2
						CHANNELS 3  Xrotation Yrotation Zrotation
						End Site
						{
							OFFSET	1	0	0
						}
					}
				}
			}
		}
	}
	JOINT right_hip
	{
		OFFSET	82.8	-127.5	0.300001
		CHANNELS 3  Xrotation Yrotation Zrotation
		JOINT right_knee
		{
			OFFSET	28.2	-396.7	2.2
			CHANNELS 3  Xrotation Yrotation Zrotation
			JOINT right_ankle
			{
				OFFSET	11.7	-411.3	35.4
				CHANNELS 3  Xrotation Yrotation Zrotation
				JOINT right_toes
				{
					OFFSET	0	-60	-88.6
					CHANNELS 3  Xrotation Yrotation Zrotation
					JOINT right_foot_ee
					{
						OFFSET	22.5	-16.5	-42.2
						CHANNELS 3  Xrotation Yrotation Zrotation
						End Site
						{
							OFFSET	1	0	0
						}
					}
				}
			}
		}
	}
}
MOTION
Frames: 13
Frame Time: 0.02
1475.39 692.574 -535.881 162.95 -55.2052 170.378 -4.26832 -0.236288 -1.54194 -4.26701 -0.137703 -1.55385 -4.26108 0.306504 -1.52953 -4.26434 0.0611265 -1.55874 -18.5266 15.3872 10.3316 -18.9669 24.178 15.7453 -0.0 0.0 -0.0 7.4048 18.5612 13.5091 9.32435 -16.5095 49.4111 3.42451 -59.4671 1.95636 -84.8473 -8.43283 5.18831 -2.76376 25.846 -5.24397 -0.0 0.0 -0.0 7.24249 21.2558 -13.2048 -9.66777 9.07751 -69.1012 0.271261 7.65343 -0.0181443 85.2192 4.45279 8.87619 -4.29769 -28.757 12.0306 0.0 0.0 0.0 -14.6988 57.8342 -12.2219 -16.8945 0.319684 2.56353 28.589 -26.2141 -4.42417 17.5972 -0.0 -0.0 -0.0 0.0 -0.0 27.8224 30.4437 -21.8685 -8.24753 -0.250694 -1.23983 -6.57789 9.25527 -1.02512 -21.506 0.0 0.0 0.0 0.0 0.0 
1490.05 694.496 -527.637 163.538 -56.4051 171.423 -4.007 -0.319632 -1.50971 -4.00575 -0.222929 -1.52698 -3.99766 0.2101 -1.5288 -4.00092 -0.0339518 -1.54279 -16.0457 15.042 8.34158 -16.4304 24.0919 13.1846 -0.0 0.0 -0.0 6.6548 19.1469 12.2883 8.40191 -17.0145 50.3766 3.38991 -59.2122 1.92659 -85.222 -8.47967 5.17907 -2.62812 25.3482 -4.74796 -0.0 0.0 -0.0 7.21142 21.3473 -13.129 -9.43663 8.77905 -68.9013 0.292225 8.23708 -0.021042 85.2668 4.4585 8.87836 -4.32627 -28.934 12.0708 0.0 0.0 0.0 -14.6507 56.9834 -13.1624 -14.9953 0.321669 2.27217 25.8344 -25.5336 -4.04165 17.6197 -0.0 -0.0 -0.0 0.0 -0.0 27.0196 29.9352 -22.2645 -7.16523 -0.228015 -1.0753 -4.3685 9.21462 -0.677709 -21.7802 0.0 0.0 0.0 0.0 0.0 
1503.51 695.958 -521.495 164.123 -57.0731 172.072 -3.76675 -0.254679 -1.60131 -3.76533 -0.152281 -1.61426 -3.75884 0.295607 -1.59426 -3.76239 0.0401481 -1.62093 -14.2849 14.8884 8.32042 -14.529 23.4477 12.6929 -0.0 0.0 -0.0 5.68336 19.5708 10.7718 7.28506 -17.5383 52.4 3.46504 -59.7609 1.99132 -85.0087 -8.45301 5.18437 -2.13511 24.2582 -2.51793 -0.0 0.0 -0.0 7.17065 21.0554 -13.0644 -9.57746 8.43864 -69.0114 0.357849 10.0525 -0.0314731 85.2356 4.45476 8.87694 -4.34561 -28.8024 12.2657 0.0 0.0 0.0 -13.3374 56.0379 -13.9279 -16.1076 0.321678 2.44282 21.9068 -23.804 -3.44695 16.7676 -0.0 -0.0 -0.0 0.0 -0.0 26.251 29.709 -22.3403 -6.54231 -0.213553 -0.980798 -2.00905 8.95211 -0.309592 -21.7331 0.0 0.0 0.0 0.0 0.0 
1526.72 702.381 -510.979 164.672 -58.372 172.73 -3.70689 -0.172667 -1.71788 -3.70525 -0.0630202 -1.72538 -3.70102 0.410243 -1.6771 -3.70492 0.140269 -1.72083 -11.5095 14.4303 7.90099 -11.581 22.2306 11.5702 -0.0 0.0 -0.0 5.30175 20.4743 10.1601 6.7561 -17.158 54.3264 3.4025 -59.3054 1.93741 -85.0132 -8.45358 5.18426 -2.1867 23.5822 -3.14831 -0.0 0.0 -0.0 7.39405 21.0533 -13.5538 -10.1339 7.43766 -68.3516 0.420076 11.7553 -0.0432453 85.2068 4.4513 8.87562 -4.17189 -28.7271 11.3551 0.0 0.0 0.0 -13.9285 56.047 -14.2586 -14.0644 0.319116 2.12936 15.5948 -22.9462 -2.5161 16.6763 -0.0 -0.0 -0.0 0.0 -0.0 24.7833 29.8639 -22.1567 -6.24273 -0.206233 -0.935407 -0.257918 8.47915 -0.0394728 -20.072 0.0 0.0 0.0 0.0 0.0 
1540.43 703.415 -505.501 164.819 -59.1312 173.141 -3.61806 -0.245829 -1.87788 -3.6161 -0.125858 -1.88971 -3.6091 0.391658 -1.85297 -3.61388 0.0941563 -1.89155 -9.31308 14.7827 7.14398 -9.31608 22.9133 10.522 -0.0 0.0 -0.0 4.98314 20.2616 9.69141 4.70866 -17.0934 54.7658 3.37893 -59.1305 1.91716 -84.6596 -8.40935 5.19282 -1.9183 23.1238 -1.83273 -0.0 0.0 -0.0 7.36849 21.6965 -13.4433 -10.207 6.96948 -68.3936 0.471859 13.1566 -0.0544152 84.9893 4.42524 8.86564 -4.17065 -28.5751 11.4475 0.0 0.0 0.0 -13.4422 55.2822 -15.0707 -13.1907 0.314609 1.99539 11.1282 -20.2043 -1.78423 15.7004 -0.0 -0.0 -0.0 0.0 -0.0 23.8919 30.0178 -21.9551 -6.59251 -0.214757 -0.988408 2.39698 9.37458 0.365971 -18.9322 0.0 0.0 0.0 0.0 0.0 
1558.37 703.468 -505.246 165.1 -59.211 172.938 -3.48976 -0.113836 -1.8643 -3.48783 0.00500398 -1.86776 -3.4855 0.507836 -1.79743 -3.48994 0.217644 -1.85505 -10.301 10.7178 6.41475 -10.2809 15.9178 8.94703 -0.0 0.0 -0.0 4.60972 20.9082 9.12337 4.0459 -16.9837 56.928 3.36319 -59.0127 1.90367 -85.1906 -8.47575 5.17986 -2.06322 24.9507 -1.77014 -0.0 0.0 -0.0 7.1855 23.221 -12.9059 -10.3687 5.72251 -69.0878 0.486871 13.5599 -0.0578835 85.1388 4.44315 8.87251 -4.24523 -28.7887 11.7196 0.0 0.0 0.0 -12.2567 50.9507 -15.8303 -21.2568 0.278584 3.23145 13.5867 -18.7018 -2.12634 16.2811 -0.0 -0.0 -0.0 0.0 -0.0 21.6386 30.6874 -20.8367 -4.81853 -0.168187 -0.720159 4.73284 8.08612 0.712615 -18.1635 0.0 0.0 0.0 0.0 0.0 
1570.84 706.492 -505.199 165.025 -59.1522 172.872 -3.44788 -0.136039 -1.96855 -3.44572 -0.0105242 -1.97321 -3.44257 0.519867 -1.90355 -3.44756 0.212773 -1.96174 -10.8889 9.09686 7.90811 -10.7761 11.9581 10.0221 -0.0 0.0 -0.0 4.23587 21.2512 8.57166 3.28995 -16.7764 58.5211 3.14987 -57.3325 1.7224 -85.2169 -8.47903 5.1792 -1.94109 23.0226 -2.01271 -0.0 0.0 -0.0 7.03159 24.7972 -12.4179 -8.63691 4.95551 -68.4571 0.457866 12.7794 -0.051275 85.1626 4.446 8.8736 -4.05628 -28.8559 10.6352 0.0 0.0 0.0 -10.7673 47.7818 -16.0252 -27.4726 0.132543 4.17368 14.9776 -11.2511 -2.20697 14.9606 -0.0 -0.0 -0.0 0.0 -0.0 20.3937 31.0382 -20.3302 -3.70396 -0.134684 -0.55239 4.24836 7.73436 0.639501 -16.5867 0.0 0.0 0.0 0.0 0.0 
1585.04 704.574 -503.968 164.611 -59.503 172.507 -3.3493 -0.0117253 -2.04479 -3.34698 0.118386 -2.0414 -3.34853 0.65926 -1.93568 -3.3536 0.345348 -2.01546 -11.2221 7.63006 7.23596 -11.1195 9.68266 9.01703 -0.0 0.0 -0.0 3.92913 21.3544 8.12549 2.7878 -16.6603 59.5996 3.02779 -56.2962 1.62023 -85.2956 -8.48886 5.17722 -2.07922 23.2876 -2.67777 -0.0 0.0 -0.0 6.69723 25.9609 -11.5686 -7.28657 4.49329 -68.6059 0.44916 12.5442 -0.0493668 85.1739 4.44736 8.87412 -4.01424 -28.7669 10.4614 0.0 0.0 0.0 -7.94647 43.4623 -18.4944 -34.4673 -0.1528 5.20849 12.8143 -8.80186 -1.88024 14.3999 -0.0 -0.0 -0.0 0.0 -0.0 18.5469 31.6694 -19.6365 -1.99547 -0.0770034 -0.296539 5.71016 8.79613 0.86024 -15.6522 0.0 0.0 0.0 0.0 0.0 
1598.1 708.756 -499.673 163.442 -60.2675 171.083 -3.51187 -0.109475 -1.88535 -3.5099 0.0106946 -1.8885 -3.5077 0.519611 -1.81566 -3.51223 0.226393 -1.87491 -12.9516 5.90112 8.28212 -12.7813 6.01617 9.63964 -0.0 0.0 -0.0 3.72464 22.9166 7.83451 2.29087 -16.4331 60.3539 2.94825 -55.5891 1.55433 -85.3806 -8.49947 5.17507 -2.25488 24.2263 -3.21477 -0.0 0.0 -0.0 6.66437 26.3271 -11.4589 -5.43741 4.47619 -68.7726 0.435511 12.1746 -0.0464452 84.9213 4.41711 8.8625 -3.90409 -28.7105 9.89251 0.0 0.0 0.0 -7.32606 39.667 -18.5435 -37.4223 -0.310972 5.63402 6.50505 -3.31493 -0.954101 13.3933 -0.0 -0.0 -0.0 0.0 -0.0 17.0206 31.473 -19.3209 -2.47351 -0.0939122 -0.367957 7.3522 6.40111 1.08866 -14.8913 0.0 0.0 0.0 0.0 0.0 
1609.87 711.283 -494.997 163.007 -61.3881 170.592 -3.37269 -0.255659 -1.92729 -3.37063 -0.132527 -1.93964 -3.36327 0.390625 -1.90453 -3.36832 0.0849963 -1.94231 -12.464 5.53236 8.63466 -12.2692 5.00463 9.84867 -0.0 0.0 -0.0 3.54919 23.6133 7.59253 1.81459 -16.677 61.1095 2.7475 -53.6842 1.39059 -84.7606 -8.42198 5.1904 -2.09543 24.0228 -2.40848 -0.0 0.0 -0.0 6.89363 26.8542 -11.9054 -4.35273 4.40005 -68.0803 0.409502 11.4674 -0.0411171 84.3312 4.34663 8.83483 -3.82739 -28.6136 9.53264 0.0 0.0 0.0 -7.10564 37.6984 -18.6401 -38.362 -0.365864 5.76761 3.37398 0.203376 -0.494398 13.3602 -0.0 -0.0 -0.0 0.0 -0.0 15.4993 30.9603 -18.6453 -3.84116 -0.138984 -0.573006 8.85044 4.45767 1.29314 -13.9772 0.0 0.0 0.0 0.0 0.0 
1624.31 713.519 -489.781 162.557 -61.7521 170.112 -3.37778 -0.368515 -1.80002 -3.37601 -0.253248 -1.81981 -3.36524 0.242258 -1.82131 -3.36987 -0.0483739 -1.83671 -14.2649 3.84831 9.07812 -14.0351 1.83124 9.82101 -0.0 0.0 -0.0 3.71981 24.4068 7.82758 0.514981 -16.1296 61.3083 2.59953 -52.1598 1.27253 -85.1108 -8.46577 5.18185 -2.35783 24.9668 -3.42287 -0.0 0.0 -0.0 6.59255 27.1474 -11.2154 -2.74965 4.58029 -68.7082 0.434976 12.1601 -0.0463325 84.6302 4.3823 8.84894 -3.72316 -28.4821 9.04256 0.0 0.0 0.0 -6.16372 35.1541 -18.8389 -42.5786 -0.638915 6.35544 -1.26298 3.92587 0.18595 12.1898 -0.0 -0.0 -0.0 0.0 -0.0 14.7187 31.0602 -18.7778 -4.87063 -0.169673 -0.728016 9.95801 2.71972 1.44023 -13.6873 0.0 0.0 0.0 0.0 0.0 
1634.87 714.488 -492.758 161.704 -62.1759 168.629 -3.37089 -0.367333 -1.90012 -3.36892 -0.245702 -1.91963 -3.35768 0.275967 -1.91552 -3.3628 -0.0299578 -1.93505 -12.9907 3.68948 9.36531 -12.7447 1.12607 10.0318 -0.0 0.0 -0.0 3.67041 23.5251 7.75989 -0.732308 -17.3657 61.5053 2.3064 -48.7988 1.04631 -83.6726 -8.2856 5.21525 -1.5055 20.2435 -0.778194 -0.0 0.0 -0.0 6.72486 26.8881 -11.5324 -1.44817 4.68192 -66.6923 0.454641 12.6923 -0.050564 84.5261 4.36986 8.84404 -3.60611 -28.2219 8.55894 0.0 0.0 0.0 -3.52957 34.7394 -19.7222 -47.8844 -1.04295 7.06451 -0.719173 6.96185 0.105457 11.1258 -0.0 -0.0 -0.0 0.0 -0.0 12.3379 30.3184 -16.8458 -5.4015 -0.184407 -0.808154 13.2639 -0.286906 1.87859 -13.1678 0.0 0.0 0.0 0.0 0.0 
1641.06 715.868 -491.685 161.252 -61.8005 167.028 -3.50901 -0.314144 -1.72136 -3.50739 -0.20399 -1.73786 -3.49871 0.271866 -1.72854 -3.50288 -0.00449358 -1.74978 -13.4599 3.36012 11.1269 -13.1118 -0.519934 11.6183 -0.0 0.0 -0.0 3.58212 23.0118 7.63517 -1.56437 -16.3654 61.8348 2.14853 -46.7787 0.929368 -82.0596 -8.0825 5.24727 -1.21326 19.0698 0.431036 -0.0 0.0 -0.0 7.0458 25.6519 -12.3636 -0.695044 5.61911 -65.9624 0.531234 14.7437 -0.0687306 84.111 4.32039 8.82432 -3.49119 -27.4103 8.41149 0.0 0.0 0.0 -0.807185 35.1709 -20.6405 -51.3536 -1.34209 7.50702 -2.41632 9.512 0.355591 8.95871 -0.0 -0.0 -0.0 0.0 -0.0 10.6816 30.1746 -15.6944 -5.85068 -0.196294 -0.876063 14.9633 -1.69409 2.09869 -12.6359 0.0 0.0 0.0 0.0 0.0 
